<svg width="165" height="165" viewBox="0 0 165 165" fill="none" xmlns="http://www.w3.org/2000/svg">
<g filter="url(#filter0_d_7_1952)">
<rect x="30.2725" y="20" width="104.727" height="104.727" rx="15" fill="#373C56"/>
</g>
<g clip-path="url(#clip0_7_1952)">
<path fill-rule="evenodd" clip-rule="evenodd" d="M114.916 71.4696H107.97C106.723 71.4696 105.689 72.4868 105.689 73.7128V79.5815C105.689 80.8075 106.723 81.8247 107.97 81.8247H114.916C116.162 81.8247 117.196 80.8075 117.196 79.5815V73.7128C117.196 72.4868 116.162 71.4696 114.916 71.4696ZM89.4368 63.7489H88.5884V63.5924C88.827 63.5924 88.9596 63.5402 88.8535 63.3576C88.6944 63.0447 89.3838 63.0707 89.4898 63.1229C89.6489 63.2533 89.5429 63.5924 89.4368 63.7489ZM88.2702 63.9576H89.3043C89.1982 64.1402 88.8801 64.714 88.6679 64.714C88.5619 64.5836 88.2967 64.2184 88.2702 63.9576ZM108.023 73.7128H114.89V79.5815H108.023V73.7128ZM93.9175 73.7128H103.462C103.462 72.4868 102.428 71.4696 101.182 71.4696H93.838C92.5919 71.4696 91.5579 72.4868 91.5579 73.7128V79.5815C91.5579 80.8075 92.5919 81.8247 93.838 81.8247H101.182C102.428 81.8247 103.462 80.8075 103.462 79.5815V75.7212H95.7204C95.7204 76.6863 96.5158 77.4427 97.4703 77.4427H101.288V79.5815H93.9175V73.7128ZM64.0902 73.7128H73.2107C73.2107 72.4868 72.1767 71.4696 70.9306 71.4696H63.8781C62.632 71.4696 61.5979 72.4868 61.5979 73.7128V75.5386C61.5979 76.7645 62.632 77.7818 63.8781 77.7818H70.9571V79.6076H61.5979C61.5979 80.8335 62.632 81.8508 63.8781 81.8508H71.1692C72.4153 81.8508 73.4493 80.8335 73.4493 79.6076V77.7818C73.4493 76.5559 72.4153 75.5386 71.1692 75.5386H64.0902V73.7128ZM50.9661 73.7128H59.5829C59.5829 72.4868 58.5489 71.4696 57.3028 71.4696H50.3563C49.1102 71.4696 48.0762 72.4868 48.0762 73.7128V79.5815C48.0762 80.8075 49.1102 81.8247 50.3563 81.8247H57.3028C58.5489 81.8247 59.5829 80.8075 59.5829 79.5815H50.9661V73.7128ZM91.6109 62.7316C91.5579 62.7577 91.5048 62.7838 91.4518 62.7838C91.1337 63.2272 91.3193 63.1751 90.736 63.5663C90.736 64.3227 90.7625 64.401 90.9481 65.0792C90.9481 65.1052 90.9481 65.1052 90.9481 65.1313C90.9481 65.1574 90.9216 65.1574 90.9216 65.1574C90.789 65.1835 90.5769 65.2357 90.4708 65.2617C90.4708 65.2878 90.5239 65.7052 90.4708 66.0442C90.3648 66.5398 89.1452 67.6353 88.88 67.7136C88.4824 67.7919 88.0316 67.4527 87.3158 67.1397C87.1302 67.0615 86.4674 66.6441 86.1226 66.5138C85.831 66.4094 85.5659 67.0876 85.9106 67.2702C86.0697 67.3484 86.3348 67.4788 86.4143 67.6875C86.6529 68.3135 86.3878 70.7132 85.884 71.1827C85.6454 71.1827 85.4333 70.974 85.2743 71.0261C84.9561 71.2087 85.1682 72.1478 85.2743 72.3042C87.2097 74.2605 86.9976 75.7212 87.8195 76.8167C88.1907 76.8167 87.9521 77.2079 88.2437 77.6774C88.3233 77.9122 88.2172 78.3034 88.1907 78.46C88.1907 78.6686 88.1907 78.8512 88.1907 79.0599C88.1642 79.112 88.1377 79.1903 88.1377 79.2425C88.1377 79.425 88.1377 79.5815 88.1377 79.7641C88.0847 80.0249 88.0051 80.364 87.9521 80.5988C87.846 81.0944 88.2702 81.4856 88.0051 81.9551C88.0051 82.242 88.0051 82.1899 87.8195 82.4246C87.8195 82.868 87.7135 83.8331 87.8195 84.1722C87.899 84.4069 88.7475 85.3981 88.9861 85.5025C89.5163 85.7372 90.2852 85.685 90.0201 86.4936C88.4824 86.9631 87.5279 86.2328 86.706 86.2328L86.6794 86.3632C86.1492 86.3632 85.7515 86.2328 85.6189 86.2067C85.6189 86.0763 85.778 85.0069 85.8575 84.8243C85.9106 84.746 85.9636 84.6417 86.0431 84.5635C86.0961 84.3809 85.9901 83.0506 85.9636 82.6854C85.6454 82.4507 85.5659 81.7204 85.5659 81.3291C85.4598 81.0161 85.4598 80.651 85.4598 80.2597C85.4598 80.0771 85.3272 79.7902 85.4068 79.5555C85.4598 79.3989 85.6454 79.3207 85.672 79.1903C85.672 79.0338 85.672 78.9034 85.672 78.7469C85.7515 78.2774 85.7249 78.0687 85.4333 77.7818C84.7175 77.7818 84.6114 77.8339 84.2402 77.234C84.1076 77.0514 83.1267 75.4864 83.0206 75.4604C82.1987 75.0952 82.3578 75.2517 81.9866 74.5996C81.9601 74.5996 81.748 74.6778 81.5624 74.9648C81.2707 75.4082 80.7405 76.8167 80.5814 77.3123C80.5019 77.5992 80.5814 77.8861 80.4488 78.1208C80.3693 78.2774 80.0511 78.3295 79.9981 78.46C79.7065 78.9816 79.9186 78.9294 79.3618 79.2946C79.2557 79.425 79.2557 79.6076 79.1762 79.7641C79.1231 79.8163 79.0966 79.8684 79.0436 79.9467C78.9376 80.1554 79.1497 80.4944 79.0967 80.6249C78.9906 80.9379 78.8845 81.277 78.752 81.5639C78.4868 82.1638 78.5399 82.9463 78.2747 83.3114C78.1422 83.494 77.824 83.3114 77.5854 83.468C77.5589 83.5984 77.1877 84.4331 77.1081 84.6678C77.1081 85.1112 77.1081 85.5546 77.1081 86.0241C77.1877 86.2589 77.3733 86.4676 77.3203 86.7545C77.2672 87.0675 76.1802 87.0675 75.5969 86.9631C75.1992 86.911 75.0931 86.6241 75.0931 86.285C75.0931 85.8937 75.8885 83.3636 75.862 83.2071C75.2522 82.529 76.0211 81.8508 76.2597 81.2248C76.3658 80.9118 76.3128 80.4944 76.4188 80.2075C76.6309 79.8163 76.843 79.4511 77.0551 79.0599C77.4529 78.6947 77.2672 78.6686 77.4793 78.3556C77.6649 78.0687 77.877 77.8861 77.7445 77.4427C77.4793 76.5819 78.0361 75.356 78.0892 74.4431C77.9831 74.3388 77.6649 74.3649 77.6119 74.104C77.5324 73.5302 77.824 72.539 78.0096 72.4608C78.0892 72.4086 78.1952 72.4608 78.2483 72.4086C78.2483 71.9913 77.824 69.6437 78.1422 69.5133C78.3543 69.4351 78.805 69.409 78.8845 69.3568C78.8845 69.2525 78.805 69.0438 78.7254 69.0438C78.5929 69.0177 78.3012 68.9656 78.0626 68.9134C77.3468 68.7569 78.0096 65.9921 78.0096 65.966C78.1952 65.7052 79.1231 66.0442 79.2292 65.6269C79.5208 65.2357 78.9906 63.775 80.0246 61.9491C80.3693 61.3492 81.0586 60.7232 81.8275 60.9841C82.0926 61.0623 81.9336 61.4536 82.3843 61.0362C82.3843 60.8015 82.2783 60.6189 82.2252 60.4102C81.4563 58.167 84.0546 56.9411 85.884 58.2192C86.0961 58.2975 86.2022 58.3496 86.3613 58.454C86.4674 58.9756 86.9711 59.8625 86.4674 60.4624C86.2552 60.5146 85.9901 60.6189 85.831 60.7232C85.831 60.9319 85.8575 61.1145 85.884 61.2449C85.9106 61.3492 85.9901 61.4014 85.8045 61.4796C85.778 61.4796 85.8045 61.5579 85.8045 61.584C86.2287 61.6622 86.6794 61.5057 86.9711 61.4014H87.3158V60.9841H87.4748V60.645H87.6339V61.2188H88.0581V61.4014H94.3417V61.7144H94.6069V60.5406H94.8455V61.5057H95.3758V62.0535H97.0461V61.897H97.3112V61.9752H98.1066V62.4186H97.3112V62.4969H97.0461V62.3404H95.3758V62.4969C95.1371 62.4969 94.8985 62.4969 94.6334 62.4969V62.3926H94.3153V62.7316H91.6109Z" fill="white"/>
</g>
<defs>
<filter id="filter0_d_7_1952" x="0.272461" y="0" width="164.727" height="164.727" filterUnits="userSpaceOnUse" color-interpolation-filters="sRGB">
<feFlood flood-opacity="0" result="BackgroundImageFix"/>
<feColorMatrix in="SourceAlpha" type="matrix" values="0 0 0 0 0 0 0 0 0 0 0 0 0 0 0 0 0 0 127 0" result="hardAlpha"/>
<feOffset dy="10"/>
<feGaussianBlur stdDeviation="15"/>
<feColorMatrix type="matrix" values="0 0 0 0 0 0 0 0 0 0 0 0 0 0 0 0 0 0 0.15 0"/>
<feBlend mode="normal" in2="BackgroundImageFix" result="effect1_dropShadow_7_1952"/>
<feBlend mode="normal" in="SourceGraphic" in2="effect1_dropShadow_7_1952" result="shape"/>
</filter>
<clipPath id="clip0_7_1952">
<rect width="69.12" height="29.3236" fill="white" transform="translate(48.0762 57.7019)"/>
</clipPath>
</defs>
</svg>
