<svg width="139" height="140" viewBox="0 0 139 140" fill="none" xmlns="http://www.w3.org/2000/svg">
<g filter="url(#filter0_d_7_1965)">
<rect x="30.2725" y="20.9092" width="78.5454" height="78.5454" rx="15" fill="#7BB4F8"/>
</g>
<g clip-path="url(#clip0_7_1965)">
<path d="M99.6081 68.2114C98.9491 68.1617 98.2941 68.1081 97.6355 68.0584C96.2189 67.9551 94.8023 67.8519 93.3745 67.7486C93.3745 62.6775 93.3745 57.614 93.3745 52.5314C93.8239 52.4931 94.2695 52.4549 94.7147 52.4166C96.2077 52.2942 97.7003 52.168 99.1891 52.0495C99.3262 52.038 99.4669 52.038 99.604 52.0342C99.604 53.3727 99.604 54.7112 99.604 56.0498C99.5051 56.0613 99.4021 56.0766 99.3033 56.0804C98.7892 56.0995 98.275 56.1148 97.765 56.1339C97.4909 56.1454 97.2127 56.1607 96.9423 56.176C96.9423 56.9294 96.9423 57.656 96.9423 58.4056C97.6965 58.4056 98.4353 58.4056 99.1891 58.4056C99.1891 59.4879 99.1891 60.5549 99.1891 61.6449C98.454 61.6449 97.7268 61.6449 96.9918 61.6449C96.9918 62.5933 96.9918 63.5188 96.9918 64.4673C97.8718 64.4673 98.736 64.4673 99.604 64.4673C99.6081 65.714 99.6081 66.9608 99.6081 68.2114Z" fill="white"/>
<path d="M46.2221 51.7664C46.1802 52.2865 46.1383 52.8066 46.0926 53.3267C46.0355 53.9616 45.9707 54.5964 45.9212 55.2313C45.9098 55.3842 45.8679 55.4378 45.708 55.434C44.9197 55.4263 44.1353 55.4301 43.3471 55.4301C43.2786 55.4301 43.21 55.4301 43.1224 55.4301C43.1224 56.3441 43.1224 57.2467 43.1224 58.1722C43.9145 58.1722 44.7104 58.1722 45.529 58.1722C45.5062 59.3654 45.4833 60.5319 45.4567 61.7174C44.6723 61.7174 43.9069 61.7174 43.1072 61.7174C43.1072 61.813 43.1072 61.8934 43.1072 61.9737C43.1072 63.8782 43.1034 65.7828 43.111 67.6911C43.111 67.8671 43.0768 67.9435 42.8902 67.9741C41.7935 68.1692 40.6968 68.3795 39.6002 68.586C39.5507 68.5937 39.5012 68.5937 39.4326 68.5975C39.4326 68.5172 39.4326 68.4484 39.4326 68.3795C39.4364 62.9183 39.4364 57.4571 39.4364 51.9958C39.4364 51.9193 39.4402 51.8428 39.444 51.7664C41.7059 51.7664 43.964 51.7664 46.2221 51.7664Z" fill="white"/>
<path d="M80.3476 66.6969C79.8183 66.7428 79.3233 66.7887 78.8245 66.8346C78.4513 66.869 78.0781 66.892 77.705 66.9378C77.5641 66.9531 77.4955 66.9264 77.4384 66.7849C76.673 64.9147 75.9 63.0446 75.1271 61.1783C75.1004 61.1171 75.0737 61.0521 75.009 60.9947C75.0737 62.8037 75.1423 64.6088 75.207 66.433C74.0989 66.433 73.0022 66.433 71.8979 66.433C71.8979 62.0618 71.8979 57.6943 71.8979 53.3115C72.8537 53.1165 73.8095 52.9214 74.7881 52.7226C75.6335 54.826 76.475 56.9256 77.3204 59.0252C77.3318 59.0213 77.3432 59.0175 77.3584 59.0175C77.1947 56.8759 77.031 54.7342 76.8672 52.5811C77.9982 52.5811 79.1101 52.5811 80.2486 52.5811C80.2791 57.2812 80.3134 61.9776 80.3476 66.6969Z" fill="white"/>
<path d="M64.0612 66.8993C62.8465 67.0026 61.6547 67.102 60.44 67.2015C59.9792 65.6181 59.5222 64.0387 59.0615 62.463C59.0501 62.463 59.0387 62.4668 59.0272 62.4668C59.012 62.8875 58.9929 63.3082 58.9815 63.7289C58.9511 64.6468 58.9168 65.5646 58.8978 66.4786C58.894 66.6546 58.8368 66.7005 58.6655 66.6966C57.6488 66.689 56.6359 66.6928 55.6192 66.6928C55.5544 66.6928 55.4935 66.6928 55.4136 66.6928C55.4136 62.073 55.4136 57.4645 55.4136 52.8294C55.4859 52.8294 55.5583 52.8294 55.6344 52.8294C56.9596 52.8294 58.2885 52.8485 59.6136 52.8256C61.0073 52.7988 62.0774 53.3954 62.8351 54.5236C63.9813 56.2369 64.1336 58.0726 63.3225 59.9734C63.1093 60.4782 62.7818 60.9103 62.3515 61.2545C62.2487 61.3387 62.2792 61.4113 62.3096 61.4993C62.8694 63.2164 63.4292 64.9336 63.9889 66.6507C64.0156 66.7272 64.0346 66.8076 64.0612 66.8993ZM58.9473 55.9692C58.9473 57.2504 58.9473 58.5201 58.9473 59.8472C59.1224 59.7592 59.2824 59.7018 59.4156 59.6062C59.667 59.4265 59.8041 59.1549 59.8916 58.8643C60.0515 58.3327 60.0554 57.7858 59.9868 57.2389C59.9488 56.9253 59.865 56.627 59.6784 56.3669C59.4994 56.126 59.2671 55.9769 58.9473 55.9692Z" fill="white"/>
<path d="M54.9565 59.8663C54.9108 61.2049 54.8308 62.5319 54.4501 63.8208C54.2482 64.5053 53.9626 65.1478 53.5019 65.6985C52.5537 66.8267 51.2933 67.1021 49.9072 66.9682C48.4336 66.8267 47.4207 66.0236 46.8267 64.6812C46.6363 64.2529 46.4878 63.8016 46.3773 63.3465C46.0346 61.9353 46.0004 60.4974 46.0499 59.0556C46.0841 58.0077 46.1831 56.9712 46.4878 55.9616C46.5906 55.6213 46.7163 55.2847 46.8685 54.9673C47.5311 53.579 48.6583 52.883 50.1738 52.8027C50.7221 52.7721 51.2629 52.818 51.7959 52.9671C52.7936 53.254 53.5057 53.8812 53.9931 54.7875C54.4158 55.5715 54.6404 56.4205 54.7433 57.2963C54.8423 58.153 54.8879 59.0097 54.9565 59.8663ZM51.0268 60.0767C50.9963 59.0479 50.9849 58.1798 50.9354 57.3154C50.9125 56.8986 50.8287 56.4856 50.745 56.0725C50.7145 55.9119 50.6536 55.7092 50.4365 55.713C50.2347 55.7169 50.1738 55.9081 50.1433 56.0649C50.0672 56.4435 49.972 56.826 49.9606 57.2122C49.9187 58.5049 49.8806 59.7975 49.8958 61.0901C49.9034 61.8971 50.0024 62.704 50.071 63.5072C50.0824 63.6487 50.1281 63.7978 50.1928 63.924C50.2423 64.0196 50.349 64.142 50.4365 64.1458C50.5203 64.1497 50.6193 64.0196 50.6841 63.9316C50.7374 63.859 50.764 63.7557 50.7792 63.6639C50.8249 63.4001 50.8858 63.1362 50.9011 62.8723C50.9544 61.8856 50.9925 60.8989 51.0268 60.0767Z" fill="white"/>
<path d="M87.2323 57.4648C86.5582 57.4648 85.9183 57.4648 85.2671 57.4648C85.2671 56.283 85.2671 55.1128 85.2671 53.9272C87.8108 53.7933 90.347 53.6595 92.8982 53.5256C92.8982 54.7074 92.8982 55.8738 92.8982 57.067C92.2242 57.067 91.5501 57.067 90.8574 57.067C90.8574 60.5625 90.8574 64.0313 90.8574 67.5114C89.6427 67.5114 88.4508 67.5114 87.2323 67.5114C87.2323 64.1689 87.2323 60.8302 87.2323 57.4648Z" fill="white"/>
<path d="M71.4529 56.9979C70.7942 56.9979 70.1431 56.9979 69.4691 56.9979C69.4691 60.2028 69.4691 63.3923 69.4691 66.5972C68.2543 66.5972 67.0587 66.5972 65.844 66.5972C65.844 63.2126 65.844 59.8203 65.844 56.4013C65.1966 56.4013 64.5645 56.4013 63.9248 56.4013C63.9248 55.2081 63.9248 54.0417 63.9248 52.8523C66.438 53.055 68.9398 53.2538 71.4529 53.4565C71.4529 54.6306 71.4529 55.7971 71.4529 56.9979Z" fill="white"/>
<path d="M84.818 53.2388C84.818 57.8586 84.818 62.4632 84.818 67.0831C83.5846 67.0831 82.3507 67.0831 81.1094 67.0831C81.1094 62.4708 81.1094 57.8625 81.1094 53.2388C82.3391 53.2388 83.5655 53.2388 84.818 53.2388Z" fill="white"/>
</g>
<defs>
<filter id="filter0_d_7_1965" x="0.272461" y="0.90918" width="138.545" height="138.545" filterUnits="userSpaceOnUse" color-interpolation-filters="sRGB">
<feFlood flood-opacity="0" result="BackgroundImageFix"/>
<feColorMatrix in="SourceAlpha" type="matrix" values="0 0 0 0 0 0 0 0 0 0 0 0 0 0 0 0 0 0 127 0" result="hardAlpha"/>
<feOffset dy="10"/>
<feGaussianBlur stdDeviation="15"/>
<feColorMatrix type="matrix" values="0 0 0 0 0 0 0 0 0 0 0 0 0 0 0 0 0 0 0.15 0"/>
<feBlend mode="normal" in2="BackgroundImageFix" result="effect1_dropShadow_7_1965"/>
<feBlend mode="normal" in="SourceGraphic" in2="effect1_dropShadow_7_1965" result="shape"/>
</filter>
<clipPath id="clip0_7_1965">
<rect width="60.2182" height="23.5636" fill="white" transform="translate(39.436 48.4001)"/>
</clipPath>
</defs>
</svg>
