<svg width="250" height="250" viewBox="0 0 250 250" fill="none" xmlns="http://www.w3.org/2000/svg">
<rect x="0.818359" y="0.45459" width="248.727" height="248.727" rx="20" fill="#2F344B" fill-opacity="0.5"/>
<g clip-path="url(#clip0_7_1940)">
<path d="M46.7637 196.817C45.9216 196.816 45.0815 196.737 44.2544 196.581C41.702 196.116 39.384 194.81 37.6777 192.876C34.001 188.848 33.6242 185.038 33.5415 181.47C33.5415 178.774 33.5415 171.232 33.5415 171.232V159.035V135.582C33.5415 135.582 33.5415 129.49 33.5415 126.399C33.4817 121.267 33.7713 116.025 36.23 112.547C39.0151 108.551 43.7075 106.292 47.1543 105.101C73.4517 96.6135 96.1138 88.7762 118.031 81.1934C140.018 73.5879 162.758 65.7369 189.124 57.204C193.072 55.9857 193.1 55.972 194.589 55.4765L195.535 55.1628L197.153 54.6082C202.425 52.7898 206.975 51.2305 212.733 55.8629C216.253 58.7406 216.745 62.8956 216.782 66.1915C216.782 67.0143 216.782 67.7053 216.782 68.4054C216.782 71.7058 216.782 80.8706 216.782 80.9616V105.287C216.782 105.396 216.805 116.484 216.782 120.498V121.671C216.782 123.203 216.782 124.772 216.782 126.608C216.759 130.595 216.024 133.918 214.599 136.5C212.274 140.796 207.953 143.024 204.741 144.138C178.585 152.963 153.196 161.56 128.574 169.927C104.063 178.247 78.7599 186.811 52.6647 195.621C50.7882 196.374 48.7881 196.779 46.7637 196.817ZM204.92 55.3947C202.806 55.3947 200.646 56.1402 198.026 57.0404C197.484 57.2267 196.933 57.4177 196.367 57.6041L195.421 57.9177C193.932 58.4133 193.876 58.436 189.906 59.6589C163.604 68.1645 140.868 76.0246 118.891 83.6255C96.9134 91.2265 74.2881 99.0548 48 107.551C44.9483 108.606 40.7753 110.593 38.3855 114.029C36.06 117.316 36.1289 123.449 36.1565 126.395C36.1565 129.5 36.1565 135.596 36.1565 135.596V171.246C36.1565 171.246 36.1565 178.774 36.1565 181.447C36.2392 185.27 36.8367 188.102 39.6355 191.189C40.973 192.69 42.7834 193.701 44.7737 194.058C47.5082 194.567 49.7648 193.944 51.7915 193.194C77.8959 184.405 103.21 175.837 127.733 167.491C152.324 159.144 177.719 150.549 203.918 141.706C206.676 140.746 210.398 138.851 212.333 135.278C213.556 133.068 214.172 130.15 214.204 126.599C214.204 124.781 214.204 123.208 214.204 121.685V120.498C214.227 116.484 214.204 105.406 214.204 105.292V80.9706C214.204 80.8797 214.204 71.7058 214.204 68.3872C214.204 67.7053 214.204 67.0234 214.204 66.2233C214.172 63.3139 213.781 60.0498 211.106 57.8632C208.854 56.0539 206.91 55.3947 204.92 55.3947Z" fill="#F0AE4B"/>
<path d="M179.693 72.9254C188.389 69.9841 196.068 67.4247 204.768 64.497C205.127 64.3743 205.255 64.497 205.255 64.7743V95.41C205.255 95.41 205.278 107.23 205.255 112.176C205.214 120.941 205.255 127.105 205.255 127.105C205.255 127.105 205.278 131.015 205.255 132.969C205.249 133.032 205.222 133.091 205.179 133.137C205.136 133.183 205.079 133.213 205.016 133.224L180.052 141.579C180.011 141.602 179.965 141.612 179.918 141.61C179.872 141.608 179.827 141.593 179.788 141.567C179.75 141.541 179.719 141.505 179.7 141.463C179.681 141.421 179.674 141.375 179.679 141.329C179.643 136.856 179.679 127.905 179.679 127.905V76.0803C179.679 76.0803 179.693 73.7709 179.693 72.9254Z" fill="#F0AE4B"/>
<path d="M175.327 74.1846C175.649 74.1028 176.081 74.3391 176.081 74.6392C176.104 77.1213 176.081 82.6811 176.081 82.6811V127.573C176.081 127.573 175.998 132.119 176.081 135.361C176.108 136.352 176.104 137.347 176.113 138.088C176.121 138.141 176.109 138.196 176.081 138.242C176.052 138.287 176.007 138.321 175.955 138.338C175.904 138.354 175.847 138.352 175.797 138.331C175.747 138.31 175.706 138.272 175.681 138.225C167.243 127.484 158.802 116.738 150.358 105.989C150.225 105.789 149.986 105.625 149.981 105.366C149.981 97.8239 149.981 90.3639 149.981 82.8129C149.98 82.7619 149.993 82.7116 150.019 82.6675C150.045 82.6233 150.083 82.5872 150.128 82.5629C158.488 79.8217 166.967 77.0077 175.327 74.1846Z" fill="#F0AE4B"/>
<path d="M121.785 92.2688L132.255 88.8093C132.544 88.6865 132.682 89.0275 132.838 89.2002C146.798 106.975 160.758 124.747 174.72 142.516C174.858 142.725 175.139 142.921 175.037 143.203C166.622 146.057 158.189 148.871 149.76 151.717C149.703 151.748 149.637 151.757 149.573 151.743C149.51 151.729 149.454 151.692 149.416 151.64C146.966 148.458 144.526 145.216 142.062 142.016L121.785 148.83C121.745 148.85 121.7 148.857 121.656 148.853C121.611 148.848 121.569 148.832 121.533 148.805C121.498 148.778 121.47 148.742 121.454 148.701C121.438 148.66 121.433 148.615 121.441 148.571C121.399 144.266 121.441 140.084 121.441 135.783C121.441 135.442 121.51 135.329 121.9 135.192C126.004 133.769 129.672 132.519 133.781 131.101C129.575 125.573 125.912 120.718 121.707 115.19C121.386 114.703 121.441 114.708 121.441 114.603C121.441 114.29 121.441 113.24 121.441 113.24V103.497C121.441 103.497 121.441 101.361 121.441 100.315C121.441 98.1468 121.441 96.4739 121.441 94.2827C121.441 93.8826 121.441 93.2689 121.441 92.8371C121.441 92.4052 121.528 92.3688 121.785 92.2688Z" fill="#F0AE4B"/>
<path d="M117.19 93.9006C117.815 93.6915 118.238 93.9916 118.238 94.4462V100.283C118.238 100.283 118.215 105.552 118.238 113.085C118.238 116.34 118.238 124.127 118.238 124.127C118.238 124.127 118.238 126.582 118.238 127.814C118.261 132.687 118.238 142.72 118.238 142.72C118.238 142.72 118.21 146.935 118.238 148.976C118.275 152.363 118.238 155.34 118.238 158.218C118.238 158.459 117.879 158.495 117.778 158.295C109.506 147.839 101.15 137.338 92.9102 126.882C92.9102 126.277 92.9102 124.859 92.9102 124.859V117.645C92.9102 117.645 92.9102 112.571 92.9102 110.107C92.9102 108.853 92.9102 105.634 92.9102 105.634V104.643C92.9102 104.643 92.9102 103.406 92.9102 102.861C92.9102 102.143 92.9515 102.07 93.2273 101.924C101.426 99.1877 108.968 96.6464 117.19 93.9006Z" fill="#F0AE4B"/>
<path d="M70.9233 109.557C70.9657 109.538 71.0124 109.531 71.0587 109.536C71.1049 109.541 71.1491 109.558 71.1865 109.585C71.2239 109.612 71.2533 109.649 71.2717 109.691C71.2901 109.734 71.2967 109.78 71.291 109.826C71.1944 132.433 71.3783 154.577 71.291 177.184C71.291 177.484 71.4288 178.211 70.8544 178.371C62.4761 181.18 54.3094 183.903 45.9449 186.708C45.3567 186.903 45.3613 186.485 45.3567 186.276C45.3567 184.667 45.3567 181.485 45.3567 181.485V132.951V121.059C45.3567 121.059 45.3567 119.372 45.3567 118.718C45.3292 118.551 45.3652 118.38 45.4577 118.238C45.5502 118.096 45.6928 117.993 45.8576 117.949L70.9233 109.557Z" fill="#F0AE4B"/>
<path d="M74.7289 110.098C74.7905 110.061 74.8643 110.05 74.9341 110.067C75.0039 110.084 75.064 110.128 75.1012 110.189C88.9255 127.637 102.906 145.089 116.73 162.537C116.779 162.562 116.818 162.603 116.84 162.652C116.863 162.702 116.868 162.758 116.854 162.811C116.84 162.864 116.808 162.91 116.764 162.943C116.72 162.976 116.666 162.993 116.611 162.991C108.265 165.792 99.9141 168.589 91.5589 171.383C91.2923 171.515 91.1499 171.201 91.0166 171.038L74.9082 150.267C74.7979 150.112 74.6232 149.976 74.6324 149.776C74.6738 136.62 74.6003 123.468 74.6324 110.316C74.6378 110.235 74.672 110.158 74.7289 110.098Z" fill="#F0AE4B"/>
</g>
<defs>
<clipPath id="clip0_7_1940">
<rect width="183.273" height="144" fill="white" transform="translate(33.5454 52.8184)"/>
</clipPath>
</defs>
</svg>
