<svg width="126" height="127" viewBox="0 0 126 127" fill="none" xmlns="http://www.w3.org/2000/svg">
<g filter="url(#filter0_d_7_1959)">
<rect x="30.0908" y="20.7273" width="65.4545" height="65.4545" rx="15" fill="#F0AE4B"/>
</g>
<g clip-path="url(#clip0_7_1959)">
<path d="M45.0309 42.087C44.7427 42.1739 44.5277 42.2929 44.3676 42.4896C44.1389 42.764 44.1297 42.8052 44.148 43.624C44.1572 44.0952 44.1572 44.9277 44.148 45.4904C44.1389 46.4968 44.1389 46.4968 43.9513 46.4373C43.5762 46.3092 42.6796 46.3687 42.5287 46.5334C42.4006 46.6706 42.4006 46.6706 42.547 46.6203C42.6568 46.5882 42.6934 46.602 42.6659 46.6706C42.6476 46.7301 42.579 46.7712 42.5287 46.7575C42.4692 46.7484 42.4326 46.9039 42.4326 47.1829C42.4326 47.4299 42.4052 47.773 42.3823 47.9331C42.3503 48.171 42.3823 48.2762 42.5607 48.4638C42.7665 48.6833 42.8352 48.7016 43.4481 48.7016C44.0199 48.7016 44.1206 48.7291 44.1572 48.848C44.2075 49.0447 44.148 58.7791 44.0977 58.9163C44.0703 58.9941 43.8781 59.0261 43.5076 59.0261C43.1371 59.0261 42.8672 59.0764 42.6979 59.1725C42.4418 59.328 42.4326 59.3417 42.4235 60.0096C42.4052 61.3682 42.4418 61.4185 43.5168 61.4185H44.2349L44.2075 63.0562C44.1755 65.3617 44.2395 65.4623 45.8955 65.5538C48.3519 65.6819 55.5429 65.7322 56.7231 65.6316C57.1348 65.5996 57.5008 65.5904 57.8987 65.5996C58.4523 65.6087 58.5895 65.5996 58.6901 65.5035C58.777 65.4349 58.8091 65.4349 58.8091 65.5035C58.8091 65.5538 58.8502 65.5996 58.896 65.5996C58.9463 65.5996 58.9829 65.5218 58.9829 65.4212C58.9829 65.3251 58.9509 65.2748 58.896 65.3022C58.8548 65.3297 58.8091 65.3114 58.8091 65.261C58.8091 65.1055 59.0149 65.2107 59.1064 65.4166C59.1933 65.6041 59.2162 65.6041 61.11 65.6041C62.1667 65.6041 63.6168 65.6316 64.335 65.6544C66.2699 65.7322 69.3028 65.6224 69.3028 65.4669C69.3028 65.3983 69.344 65.348 69.3989 65.348C69.4492 65.348 69.4766 65.4074 69.44 65.476C69.408 65.5858 69.4995 65.6041 70.053 65.6041C70.4098 65.6133 72.3814 65.6224 74.4399 65.6316C76.4892 65.6407 78.1406 65.6224 78.1177 65.5813C78.0994 65.5492 78.1452 65.5218 78.2183 65.5218C78.3053 65.5218 78.3281 65.563 78.2961 65.6224C78.1955 65.7825 80.4278 65.6499 80.8029 65.4623C81.425 65.1558 81.4616 65.0278 81.4662 63.1751C81.4753 62.2602 81.4982 61.4597 81.5348 61.3819C81.5668 61.2813 81.6354 61.263 81.7727 61.3042C82.0197 61.3911 82.9483 61.3453 83.1221 61.2539C83.2319 61.1852 83.2228 61.1761 83.0947 61.1669C82.9986 61.1669 82.9483 61.1258 82.9757 61.0572C82.994 61.0068 83.0535 60.9611 83.0947 60.9702C83.2045 60.9977 83.2914 59.6299 83.1953 59.4607C82.9895 59.0947 82.9575 59.0764 82.1798 59.0353L81.4021 58.9941L81.3838 53.8479L81.3564 48.7108H82.1158C82.8156 48.7108 82.8751 48.6925 83.081 48.4729C83.2594 48.2854 83.296 48.1847 83.2594 47.9423C83.2319 47.7822 83.209 47.4391 83.209 47.2012C83.209 46.913 83.177 46.7575 83.113 46.7758C83.0627 46.7849 82.994 46.7438 82.9757 46.6797C82.9483 46.6111 82.9849 46.5928 83.0947 46.6294C83.2319 46.6797 83.2319 46.6706 83.1221 46.5517C82.9849 46.4053 82.1432 46.3367 81.7589 46.4419C81.3747 46.5425 81.3427 46.451 81.2878 44.914C81.1917 42.5399 81.0133 42.2014 79.8468 42.2334C79.5038 42.2425 79.1835 42.2242 79.1287 42.2014C79.0372 42.119 77.5871 42.0184 76.8552 42.0184C76.5716 42.0275 76.0775 42.0275 75.7482 42.0275C75.4234 42.0275 73.7354 42.0458 71.9926 42.055C70.2588 42.0641 68.5114 42.0824 68.1089 42.0962C67.7063 42.1099 67.2123 42.1282 67.0019 42.1236C63.69 42.0733 60.9453 42.055 60.7989 42.0916C60.6891 42.119 60.6114 42.1694 60.6297 42.2014C60.6388 42.2334 60.6114 42.27 60.5611 42.2791C60.5199 42.2974 60.4741 42.2517 60.4741 42.1922C60.4741 42.1145 60.0625 42.0916 58.7267 42.0916C57.3681 42.0916 56.9884 42.119 56.993 42.1922C57.0113 42.2517 56.961 42.302 56.8832 42.302C56.8146 42.302 56.7734 42.27 56.7963 42.2242C56.8969 42.0687 56.3434 42.0458 52.4552 42.0458C50.2961 42.0458 47.8396 42.0275 46.9933 42.0138C45.8726 41.9864 45.3374 42.0092 45.0309 42.087ZM62.3725 44.3971C74.051 44.4154 77.9164 44.3879 77.9164 44.3193C77.9164 44.2416 77.9439 44.2507 77.9851 44.3193C78.0171 44.3788 78.2412 44.4383 78.4699 44.4474L78.8954 44.4749L78.9045 44.9003C78.9228 45.5819 79.0326 52.4755 79.0234 52.6219C78.996 53.3492 79.0234 58.834 79.0646 60.7461C79.1058 62.6582 79.0966 63.2026 79.0143 63.2529C78.9548 63.2849 78.63 63.3032 78.3053 63.294C77.674 63.2666 75.3685 63.2666 66.5307 63.2757C61.9471 63.2849 61.3524 63.3032 61.3936 63.413C61.4256 63.4999 61.3845 63.5411 61.2747 63.5411C61.1649 63.5411 61.1191 63.4999 61.1557 63.413C61.1969 63.3032 60.6617 63.294 56.8649 63.294C54.4862 63.3032 51.8331 63.3261 50.9685 63.3535C50.1131 63.3855 49.4178 63.3855 49.4178 63.3444C49.4178 63.2437 49.1204 63.2757 49.0061 63.3855C48.9283 63.4633 48.878 63.4724 48.8368 63.4038C48.8048 63.3352 48.3931 63.3032 47.7207 63.294C47.1397 63.2849 46.6274 63.262 46.5953 63.2346C46.5542 63.2071 46.5176 62.8869 46.5176 62.5027C46.5176 61.9309 46.4993 61.8302 46.3895 61.8714C46.3026 61.9034 46.2614 61.8623 46.2614 61.7525C46.2614 61.6427 46.3026 61.5969 46.3895 61.6335C46.4993 61.6747 46.5176 61.2996 46.5267 58.587C46.5587 48.3814 46.5587 48.5004 46.4398 48.4592C46.3712 48.4317 46.3529 48.3997 46.4124 48.3631C46.5404 48.2854 46.5587 47.2561 46.4398 46.8764C46.3803 46.7072 46.362 46.5196 46.4078 46.4602C46.4398 46.4007 46.4764 45.9204 46.4947 45.4126C46.5039 44.8911 46.513 44.4245 46.513 44.3559C46.5222 44.2782 46.5725 44.2599 46.6731 44.3148C46.7509 44.3468 53.8184 44.3879 62.3725 44.3971Z" fill="white"/>
<path d="M73.5931 46.5471L71.777 46.5654L71.4431 46.8902C71.1595 47.1647 71.1 47.2745 71.0589 47.677C70.9628 48.4867 70.9628 49.6211 71.0406 51.4326C71.0817 52.3978 71.1092 53.3356 71.0909 53.5231C71.0726 53.7107 71.0589 55.2797 71.0589 57.0226L71.0497 60.1789L71.2556 60.5129C71.3653 60.6913 71.5803 60.888 71.7313 60.9566C72.0744 61.103 75.5006 61.135 75.9535 60.9977C76.3698 60.8697 76.7037 60.4442 76.754 59.9731C76.8409 59.1451 76.8043 52.8415 76.7129 52.6037L76.6168 52.375H75.4457C74.6544 52.375 74.2427 52.407 74.174 52.4756C74.1054 52.5442 74.0734 52.8781 74.0734 53.395V54.2139L74.3296 54.3603L74.5857 54.5158L74.5949 55.4718C74.5949 56.0025 74.5949 56.8533 74.5857 57.3839C74.5766 57.9558 74.6132 58.3995 74.6727 58.491C74.7413 58.6007 74.7504 58.7105 74.6818 58.8752C74.5949 59.1039 74.5857 59.1039 73.9499 59.0719C73.2226 59.0399 73.0899 58.985 73.2226 58.8157C73.3186 58.6968 73.3598 52.7318 73.282 49.9276L73.2409 48.5553L73.8538 48.5233C74.7687 48.4821 74.7596 48.473 74.7596 49.0859C74.7596 49.3833 74.8007 49.6577 74.8602 49.7172C74.938 49.795 74.938 49.8178 74.8602 49.8178C74.6727 49.8178 74.7504 50.0557 74.9563 50.1015C75.2628 50.1609 76.4658 50.1106 76.5527 50.0237C76.5848 49.9825 76.6397 49.3238 76.6625 48.5553L76.6946 47.1555L76.4567 46.9177C76.2508 46.7118 76.0724 46.6432 75.5006 46.5517C75.4457 46.5334 74.5812 46.5334 73.5931 46.5471ZM49.2114 46.7118C49.1336 46.7896 49.1108 47.2745 49.1336 48.4592C49.1611 50.3714 49.1519 50.225 49.2526 50.0649C49.3212 49.9642 49.3395 49.9871 49.3395 50.1655C49.3395 50.2844 49.2983 50.4034 49.2388 50.4217C49.1611 50.4491 49.1382 50.8151 49.1382 51.6934C49.1291 52.7592 49.1108 52.9559 48.9827 53.084C48.8546 53.2029 48.8271 53.3905 48.8271 54.1773C48.8271 54.6988 48.8546 55.0967 48.8866 55.0739C48.9644 54.9961 49.2526 55.2614 49.2526 55.4169C49.2526 55.4764 49.2251 55.5267 49.1931 55.5267C49.1519 55.5267 49.1153 56.6978 49.097 58.1296C49.0879 59.5614 49.1153 60.7324 49.1474 60.7324C49.1885 60.7324 49.2663 60.8285 49.3166 60.9474C49.4127 61.1533 49.4447 61.1624 50.2635 61.1624C51.5261 61.1624 51.4574 61.318 51.4346 58.2119C51.4163 56.8533 51.4025 55.7051 51.3843 55.6594C51.2882 55.2934 51.3339 55.2751 52.5462 55.2751C53.859 55.2751 54.3531 55.1791 54.6458 54.8726L54.8425 54.6576L54.87 50.9569C54.8883 48.4638 54.8608 47.1921 54.8013 47.0823C54.5864 46.6889 54.3576 46.6569 51.7548 46.6295C49.9525 46.6158 49.2754 46.634 49.2114 46.7118ZM52.5782 48.7566C52.5873 48.8435 52.5873 49.7538 52.5965 50.7876C52.5965 51.8214 52.6239 52.5945 52.6376 52.5122C52.7063 52.256 52.8343 52.3567 52.8343 52.6723C52.8343 52.9193 52.8069 52.9696 52.6971 52.9285C52.601 52.8964 52.5782 52.9193 52.6102 53.0291C52.6514 53.1572 52.601 53.1755 52.0887 53.148C51.7639 53.1297 51.4757 53.0611 51.4071 53.0016C51.2699 52.8644 51.2607 52.6174 51.3888 52.6174C51.4483 52.6174 51.4666 52.0181 51.43 50.6641C51.4117 49.5891 51.4117 48.6834 51.4391 48.6605C51.4712 48.6331 51.7365 48.6102 52.0384 48.6102C52.4958 48.6148 52.5782 48.6376 52.5782 48.7566ZM56.5122 46.6844C56.3658 46.8536 56.4161 48.7474 56.5717 48.7154C56.622 48.7063 56.6723 48.7566 56.6723 48.8252C56.6723 48.8938 56.622 48.9441 56.5717 48.9258C56.4939 48.9167 56.4527 49.0539 56.4344 49.3604C56.4161 49.7172 56.4344 49.8041 56.5213 49.7538C56.6082 49.7035 56.6082 49.7126 56.5396 49.8133C56.4024 49.9917 56.3109 59.6574 56.439 60.2292C56.5168 60.5357 56.6082 60.7004 56.8232 60.8514L57.1069 61.0709L59.3438 61.0389C61.8368 61.0069 62.0152 60.9611 62.2851 60.4397C62.4727 60.0737 62.5504 57.1964 62.5047 52.1874C62.4864 50.1472 62.4727 48.1162 62.4727 47.6907C62.4727 47.1967 62.4406 46.8811 62.3766 46.8353C62.3171 46.8079 62.2577 46.8262 62.2394 46.8765C62.1982 47.0229 62.0518 47.0046 62.0518 46.849C62.0518 46.7484 61.9146 46.721 61.3245 46.721C60.1534 46.721 60.2403 46.4373 60.2495 50.3714C60.2586 52.1874 60.2815 54.1864 60.309 54.7994C60.3501 55.6091 60.3364 55.9339 60.2678 55.9339C60.1123 55.9339 60.158 56.2586 60.3273 56.3501C60.4279 56.4187 60.4462 56.4599 60.3684 56.5057C60.309 56.556 60.2586 56.9768 60.2403 57.7408C60.2129 58.7288 60.19 58.9347 60.0619 59.0628C59.9156 59.2091 59.9018 59.2091 59.7966 59.0628C59.6685 58.9027 59.3117 58.8752 59.0556 59.0124C58.7994 59.1405 58.5341 58.8935 58.6027 58.587C58.6622 58.3309 58.7033 51.2496 58.6622 48.6834L58.6301 46.9268L58.2642 46.7301C58.0172 46.5929 57.8388 46.5426 57.7336 46.5929C57.5735 46.6615 57.0016 46.6615 56.7546 46.5837C56.6769 46.5837 56.5717 46.6158 56.5122 46.6844ZM64.1149 46.6752C64.0188 46.8033 63.9868 49.9002 64.0829 50.3165C64.124 50.4766 64.124 50.8791 64.1012 51.213C64.0691 51.547 64.0737 51.8535 64.1195 51.9129C64.2292 52.0502 64.1195 52.3658 63.9639 52.3658C63.8953 52.3658 63.8633 52.407 63.8862 52.4527C63.9136 52.503 63.877 52.5991 63.8084 52.6723C63.6529 52.8278 63.6117 54.0217 63.7581 54.1132C63.8084 54.1407 63.845 54.2413 63.845 54.3282C63.845 54.4151 63.8862 54.4975 63.9411 54.5158C64.0188 54.5432 64.0417 55.3072 64.0417 57.3153C64.0325 58.921 64.0691 60.1286 64.1195 60.1926C64.1606 60.243 64.1606 60.3116 64.1286 60.3299C64.0874 60.3573 64.0691 60.5357 64.0874 60.7233L64.1195 61.0709L66.3975 61.0435C69.7917 61.016 69.595 61.2585 69.6042 57.0592C69.6042 54.2367 69.595 54.1087 69.4349 53.9348C68.9226 53.3813 68.8631 53.2761 69.0004 53.2029C69.3434 53.0154 69.4258 52.622 69.4441 51.3411C69.4532 50.6595 69.4715 49.4199 69.4853 48.5873C69.5127 47.1555 69.5036 47.0595 69.3297 46.8994C69.0644 46.634 68.6664 46.5837 66.3518 46.5746C64.737 46.5746 64.1835 46.5929 64.1149 46.6752ZM67.3078 48.6239C67.3581 48.7108 67.3581 49.3558 67.3078 51.858C67.2987 52.4802 67.2575 52.5168 66.6171 52.4115L66.2511 52.3612L66.2008 51.6202C66.1734 51.2085 66.1505 50.8196 66.1413 50.751C66.1413 50.6824 66.1688 50.1518 66.2008 49.5754L66.2603 48.5324H66.7543C67.0242 48.5279 67.2712 48.569 67.3078 48.6239ZM67.2712 54.621C67.3033 54.6713 67.3399 55.33 67.3399 56.0802C67.3399 56.8304 67.349 57.7956 67.349 58.2302C67.3581 58.6556 67.3398 59.049 67.3078 59.0902C67.2392 59.2 66.3518 59.1588 66.2054 59.0307C66.1093 58.953 66.0956 58.8523 66.1459 58.619C66.1871 58.4498 66.2237 57.4846 66.2237 56.4691C66.2237 54.8817 66.242 54.6164 66.3609 54.5341C66.521 54.4151 67.1797 54.4746 67.2712 54.621Z" fill="white"/>
</g>
<defs>
<filter id="filter0_d_7_1959" x="0.0908203" y="0.727295" width="125.455" height="125.455" filterUnits="userSpaceOnUse" color-interpolation-filters="sRGB">
<feFlood flood-opacity="0" result="BackgroundImageFix"/>
<feColorMatrix in="SourceAlpha" type="matrix" values="0 0 0 0 0 0 0 0 0 0 0 0 0 0 0 0 0 0 127 0" result="hardAlpha"/>
<feOffset dy="10"/>
<feGaussianBlur stdDeviation="15"/>
<feColorMatrix type="matrix" values="0 0 0 0 0 0 0 0 0 0 0 0 0 0 0 0 0 0 0.15 0"/>
<feBlend mode="normal" in2="BackgroundImageFix" result="effect1_dropShadow_7_1959"/>
<feBlend mode="normal" in="SourceGraphic" in2="effect1_dropShadow_7_1959" result="shape"/>
</filter>
<clipPath id="clip0_7_1959">
<rect width="40.9091" height="23.6818" fill="white" transform="translate(42.3635 42)"/>
</clipPath>
</defs>
</svg>
